<?xml version="1.0" encoding="UTF-8" standalone="no"?>
<svg
   xmlns:dc="http://purl.org/dc/elements/1.1/"
   xmlns:cc="http://creativecommons.org/ns#"
   xmlns:rdf="http://www.w3.org/1999/02/22-rdf-syntax-ns#"
   xmlns:svg="http://www.w3.org/2000/svg"
   xmlns="http://www.w3.org/2000/svg"
   xmlns:xlink="http://www.w3.org/1999/xlink"
   xmlns:sodipodi="http://sodipodi.sourceforge.net/DTD/sodipodi-0.dtd"
   xmlns:inkscape="http://www.inkscape.org/namespaces/inkscape"
   width="61.648968mm"
   height="19.319681mm"
   viewBox="0 0 61.648968 19.319681"
   version="1.1"
   id="svg874"
   inkscape:version="1.0.1 (3bc2e813f5, 2020-09-07)"
   sodipodi:docname="optequilibrium.svg">
  <defs
     id="defs868">
    <linearGradient
       inkscape:collect="always"
       id="linearGradient1514">
      <stop
         style="stop-color:#d503ff;stop-opacity:1"
         offset="0"
         id="stop1510" />
      <stop
         style="stop-color:#36ffda;stop-opacity:1"
         offset="1"
         id="stop1512" />
    </linearGradient>
    <linearGradient
       inkscape:collect="always"
       xlink:href="#linearGradient1514"
       id="linearGradient1518"
       gradientUnits="userSpaceOnUse"
       x1="-51.154228"
       y1="-15.549549"
       x2="8.3770218"
       y2="-32.747467"
       gradientTransform="translate(70.99798,45.976632)" />
  </defs>
  <sodipodi:namedview
     id="base"
     pagecolor="#ffffff"
     bordercolor="#666666"
     borderopacity="1.0"
     inkscape:pageopacity="0.0"
     inkscape:pageshadow="2"
     inkscape:zoom="3.959798"
     inkscape:cx="110.62652"
     inkscape:cy="40.98482"
     inkscape:document-units="mm"
     inkscape:current-layer="layer1"
     inkscape:document-rotation="0"
     showgrid="true"
     inkscape:window-width="1920"
     inkscape:window-height="1001"
     inkscape:window-x="-9"
     inkscape:window-y="-9"
     inkscape:window-maximized="1"
     fit-margin-top="0"
     fit-margin-left="0"
     fit-margin-right="0"
     fit-margin-bottom="0">
    <inkscape:grid
       type="xygrid"
       id="grid1437"
       spacingx="1.3229167"
       spacingy="1.3229167"
       originx="-18.784882"
       originy="-12.164651" />
  </sodipodi:namedview>
  <metadata
     id="metadata871">
    <rdf:RDF>
      <cc:Work
         rdf:about="">
        <dc:format>image/svg+xml</dc:format>
        <dc:type
           rdf:resource="http://purl.org/dc/dcmitype/StillImage" />
        <dc:title></dc:title>
      </cc:Work>
    </rdf:RDF>
  </metadata>
  <g
     inkscape:label="Livello 1"
     inkscape:groupmode="layer"
     id="layer1">
    <path
       id="path1495"
       d="m 32.115923,3.5958737e-4 c -2.1744,0.007200003 -4.7482,0.10110000263 -7.0197,0.73900000263 -1.5143,0.42530001 -2.9323,1.10520001 -3.9434,2.27380001 -0.7905,0.9135 -1.1492,2.1846995 -1.2191,3.6069995 -2.0621,0 -3.7641,2e-4 -5.6461,0 H 4.8819232 l 3.3351999,-2.002 c 0.2409,-0.1443 0.4146,-0.3784995 0.4827,-0.6509995 0.0681,-0.2724 0.0252,-0.5608 -0.1194,-0.8016 -0.1973,-0.3295 -0.5576,-0.5263 -0.9415,-0.5142 -0.1799,0.0062 -0.3553,0.0581 -0.5096,0.1509 L 0.51432319,6.7710591 c -0.0019,0.0012 -0.0038,0.0024 -0.0057,0.0036 -0.0253,0.0153 -0.05,0.0317 -0.0739,0.0491 -0.0119,0.0087 -0.0236,0.0177 -0.0352,0.0269 -0.2257,0.1796 -0.3684,0.4436 -0.395,0.7309 -0.0265,0.2873 0.0654,0.573 0.2545,0.7909 0.0195,0.0226 0.0401,0.0443 0.0615,0.0651 0.0319,0.0311 0.0657,0.0601 0.1013,0.0868 0.0113,0.0085 0.0229,0.0168 0.0346,0.0249 0.001,6e-4 0.002,0.0013 0.0031,0.002 0.0088,0.0062 0.0178,0.0122 0.0269,0.0181 0.0044,0.003 0.0089,0.0059 0.0134,0.0088 0.0048,0.003 0.0096,0.0059 0.0145,0.0088 0.0061,0.0037 0.0123,0.0073 0.0186,0.0108 L 7.1293231,12.555659 c 0.5011,0.3 1.1505,0.1375 1.4511,-0.3633 0.1446,-0.2407 0.1875,-0.5291 0.1194,-0.8016 -0.0681,-0.2724 -0.2418,-0.5066 -0.4827,-0.651 L 4.8819232,8.7378591 h 9.4056998 c 1.98,2e-4 3.7131,0 5.9391,0 0.4973,1.6116999 1.5323,2.9489999 2.9983,3.8239999 1.765,1.0536 3.9538,1.6757 6.211,2.08 4.5144,0.8086 9.3575,0.7111 11.3104,0.7111 h 6.6151 9.4051 l -3.3347,2.0019 c -0.5007,0.3006 -0.6633,0.95 -0.3633,1.4511 0.3006,0.5007 0.95,0.6633 1.4511,0.3633 l 6.5706,-3.9424 c 0.3439,-0.1842 0.5586,-0.5427 0.5586,-0.9328 -1e-4,-0.0226 -0.001,-0.0451 -0.0026,-0.0677 -0.0029,-0.0446 -0.0086,-0.0889 -0.0171,-0.1328 -0.0028,-0.0145 -0.0059,-0.029 -0.0093,-0.0434 -0.0068,-0.0289 -0.0149,-0.0575 -0.0242,-0.0858 -0.0046,-0.014 -0.0094,-0.028 -0.0145,-0.0418 -0.0052,-0.0139 -0.0107,-0.0277 -0.0165,-0.0414 -0.0058,-0.0135 -0.0118,-0.027 -0.0181,-0.0403 -0.0062,-0.013 -0.0125,-0.026 -0.0192,-0.0387 l -5e-4,-0.0011 -5e-4,-0.001 c -0.006,-0.0113 -0.0122,-0.0225 -0.0186,-0.0336 -9e-4,-0.0015 -0.0018,-0.0031 -0.0027,-0.0046 -7e-4,-0.0013 -0.0014,-0.0025 -0.0021,-0.0037 -0.0065,-0.0108 -0.0132,-0.0214 -0.0202,-0.032 l -0.001,-0.0021 c -0.0037,-0.0059 -0.0075,-0.0117 -0.0114,-0.0175 -0.0044,-0.0066 -0.0089,-0.0132 -0.0134,-0.0197 -9e-4,-0.0012 -0.0018,-0.0024 -0.0027,-0.0036 -0.0059,-0.0085 -0.0119,-0.017 -0.0181,-0.0253 -0.0017,-0.0023 -0.0034,-0.0045 -0.0051,-0.0067 -0.0043,-0.0056 -0.0086,-0.0111 -0.0129,-0.0166 -0.0016,-0.0019 -0.0031,-0.0038 -0.0047,-0.0057 -0.0068,-0.0083 -0.0137,-0.0166 -0.0207,-0.0248 -10e-4,-0.0012 -0.002,-0.0024 -0.0031,-0.0036 -0.0052,-0.0061 -0.0106,-0.0121 -0.016,-0.0181 -0.0046,-0.005 -0.0092,-0.01 -0.0139,-0.0149 -0.0055,-0.0058 -0.011,-0.0115 -0.0166,-0.0171 -0.0086,-0.0088 -0.0174,-0.0174 -0.0263,-0.0258 -0.0017,-0.0018 -0.0034,-0.0035 -0.0052,-0.0052 -0.0051,-0.0047 -0.0103,-0.0094 -0.0155,-0.014 -8e-4,-6e-4 -0.0017,-0.0013 -0.0026,-0.002 -0.0103,-0.0092 -0.0209,-0.0181 -0.0315,-0.0269 -0.006,-0.0051 -0.012,-0.01 -0.0181,-0.015 -0.0026,-0.0019 -0.0052,-0.0038 -0.0078,-0.0057 -0.0066,-0.0052 -0.0134,-0.0104 -0.0201,-0.0155 -0.0026,-0.0019 -0.0052,-0.0038 -0.0078,-0.0056 -0.0056,-0.0041 -0.0113,-0.008 -0.0171,-0.0119 -10e-4,-7e-4 -0.002,-0.0014 -0.0031,-0.0021 -0.0112,-0.0076 -0.0226,-0.015 -0.0341,-0.0222 -0.0065,-0.0042 -0.013,-0.0084 -0.0196,-0.0124 l -0.0186,-0.0109 -6.5965,-3.9578999 c -0.1743,-0.1046 -0.3751,-0.1568 -0.5782,-0.1503 -0.3593,0.0118 -0.688,0.2053 -0.8729,0.5136 -0.3,0.5010999 -0.1374,1.1504999 0.3633,1.4510999 l 3.3409,2.004 h -9.4109 -6.6151 c -2.0159,0 -6.7133,0.0786 -10.9373,-0.678 -2.112,-0.3783 -4.0911,-0.9743 -5.4984,-1.8143 -0.9384,-0.5602 -1.5015,-1.2321999 -1.8867,-1.9879999 2.06,0.053 7.401,0.2959 13.3888,0.1462 3.3342,-0.0833 6.5885,-0.2868 9.092,-0.74 1.2517,-0.2266 2.3111,-0.505 3.1636,-0.9281 0.4262,-0.2115 0.8101,-0.4594 1.125,-0.8144 0.3149,-0.3551 0.5493,-0.8592 0.5493,-1.3865 0,-1.4197995 -0.9469,-2.5469995 -2.1156,-3.2131995 -1.1687,-0.6662 -2.6214,-1.04380001 -4.1992,-1.30280001 -3.1558,-0.5181 -6.8315,-0.5116 -9.2966,-0.5116 -0.61,0 -1.2906,-0.007 -2.0154,-0.004600003 z M 34.131323,2.1222596 c 2.4651,0 6.0652,0.0085 8.9529,0.4826 1.4439,0.2371 2.7049,0.6027 3.4944,1.0527 0.7746,0.4415 1.0348,0.7980995 1.0443,1.3445995 -0.0041,0.0039 -2e-4,-0.0019 -0.0134,0.0129 -0.0546,0.0616 -0.2159,0.1919 -0.4821,0.324 -0.5325,0.2643 -1.4559,0.5331 -2.6019,0.7405 -2.2921,0.415 -5.487,0.625 -8.7675,0.707 -6.0734,0.1518 -11.6639,-0.1134 -13.7521,-0.1545 0.053,-0.9385 0.2764,-1.6891 0.7483,-2.2344995 0.6273,-0.725 1.6417,-1.2638 2.914,-1.6211 2.5447,-0.7146 5.9726,-0.6542 8.4631,-0.6542 z"
       style="color:#000000;font-style:normal;font-variant:normal;font-weight:normal;font-stretch:normal;font-size:medium;line-height:normal;font-family:sans-serif;font-variant-ligatures:normal;font-variant-position:normal;font-variant-caps:normal;font-variant-numeric:normal;font-variant-alternates:normal;font-variant-east-asian:normal;font-feature-settings:normal;font-variation-settings:normal;text-indent:0;text-align:start;text-decoration:none;text-decoration-line:none;text-decoration-style:solid;text-decoration-color:#000000;letter-spacing:normal;word-spacing:normal;text-transform:none;writing-mode:lr-tb;direction:ltr;text-orientation:mixed;dominant-baseline:auto;baseline-shift:baseline;text-anchor:start;white-space:normal;shape-padding:0;shape-margin:0;inline-size:0;clip-rule:nonzero;display:inline;overflow:visible;visibility:visible;isolation:auto;mix-blend-mode:normal;color-interpolation:sRGB;color-interpolation-filters:linearRGB;solid-color:#000000;solid-opacity:1;vector-effect:none;fill:url(#linearGradient1518);fill-opacity:1;fill-rule:nonzero;stroke:none;stroke-width:2.11667;stroke-linecap:round;stroke-linejoin:round;stroke-miterlimit:4;stroke-dasharray:none;stroke-dashoffset:0;stroke-opacity:1;color-rendering:auto;image-rendering:auto;shape-rendering:auto;text-rendering:auto;enable-background:accumulate;stop-color:#000000" />
  </g>
</svg>
